<svg xmlns="http://www.w3.org/2000/svg" viewBox="0 0 724.17578 806.75726">
<g display="inline" fill="#000000" transform="matrix(0, -17.2542, 17.2542, 0, 10442.7, -2252.86)" id="g11676">
  <path fill="#ffffff" fill-rule="nonzero" stroke-width="2" id="path11666" d="m-162.231094,-570.803467c0,4.168335 -3.379089,7.547424 -7.547424,7.547424c-4.168335,0 -7.547424,-3.379089 -7.547424,-7.547424c0,-4.168335 3.379089,-7.547424 7.547424,-7.547424c4.168335,0 7.547424,3.379089 7.547424,7.547424z"/>
  <path fill="#ffffff" fill-rule="nonzero" stroke-width="2" d="m-130.568726,-570.803467c0,4.168335 -3.379089,7.547424 -7.547424,7.547424c-4.168335,0 -7.547424,-3.379089 -7.547424,-7.547424c0,-4.168335 3.379089,-7.547424 7.547424,-7.547424c4.168335,0 7.547424,3.379089 7.547424,7.547424z" id="path11668"/>
  <path fill="#ffffff" fill-rule="nonzero" stroke-width="2" id="path11670" d="m-146.399902,-597.679688c0,4.168335 -3.379089,7.547424 -7.547424,7.547424c-4.168335,0 -7.547424,-3.379089 -7.547424,-7.547424c0,-4.168335 3.379089,-7.547424 7.547424,-7.547424c4.168335,0 7.547424,3.379089 7.547424,7.547424z"/>
  <rect fill="#ffffff" fill-rule="nonzero" stroke-width="2" id="rect11672" width="27.69206" height="2.999973" x="413.839917" y="-434.222427" transform="matrix(0.5, -0.866025, 0.866025, 0.5, 0, 0)"/>
  <rect fill="#ffffff" fill-rule="nonzero" stroke-width="2" transform="matrix(-0.5, -0.866025, -0.866025, 0.5, 0, 0)" y="-167.234521" x="567.731846" height="2.999973" width="27.69206" id="rect11674"/>
</g></svg>